# xmcd
#
# Track frame offsets:
# 150
# 15037
# 32487
# 45437
# 88912
# 116762
# 140925
# 158200
# 175375
# 199237
#
# Disc length: 2924 seconds
#
#
# Revision: 5
# Processed by: cddbd v1.5.2PL0 Copyright (c) Steve Scherf et al.
# Submitted via: FreeRIP 2.951 
#
DISCID=810b6a0a
DTITLE=Hobo Blues Band - Középeurópai Hobo Blues
DYEAR=1980
DGENRE=Blues
TTITLE0=Operett
TTITLE1=Leples bitang
TTITLE2=Édes otthon
TTITLE3=Hey Joe
TTITLE4=Ki vagyok én?
TTITLE5=Rózsadomb blues
TTITLE6=Mindenki sztár
TTITLE7=Középeurópai hobo blues II.
TTITLE8=Rolling Stones Blues - remix
TTITLE9=3:20-as blues - remix
EXTD=YEAR: 1993\nby Lajos
EXTT0=
EXTT1=
EXTT2=
EXTT3=
EXTT4=
EXTT5=
EXTT6=
EXTT7=
EXTT8=
EXTT9=
PLAYORDER=
